<svg width="94" height="106" viewBox="0 0 94 106" fill="none" xmlns="http://www.w3.org/2000/svg">
<path d="M46.3259 105.987C46.3354 105.991 46.3458 105.982 46.3421 105.972C45.1535 102.718 43.9653 99.6389 42.9514 96.5249C42.4606 94.928 41.5139 94.0054 40.0413 93.4021C37.8325 92.5149 35.5886 91.6277 33.4499 90.6341C31.8722 89.8889 30.4697 89.9953 28.9271 90.8115C26.5836 92.0272 24.1666 93.1437 21.9217 94.2233C21.1421 94.5981 20.2086 94.4386 19.6049 93.8191C17.195 91.3465 14.8458 88.9181 12.3688 86.3779C11.7848 85.779 11.6343 84.8805 11.9866 84.1218C13.0237 81.8886 14.1594 79.3749 15.3936 76.9361C16.1649 75.4456 16.2 74.1681 15.4637 72.6776C14.4119 70.5129 13.5003 68.2772 12.6939 66.006C12.0978 64.3381 11.1512 63.3445 9.43322 62.8477C6.87378 62.1024 4.38447 61.0023 1.82502 60.2216C0.42259 59.7958 -0.0332029 58.9796 0.00185799 57.5956C0.0719797 54.6856 0.0719797 51.7757 0.00185799 48.8303C-0.0332029 47.2688 0.632954 46.4526 2.07045 45.9913C4.41953 45.2106 6.73354 44.2524 9.08262 43.4717C10.8006 42.9039 11.9576 41.9458 12.5887 40.1359C13.36 37.8647 14.3417 35.6646 15.3234 33.4643C15.9545 32.0804 15.9545 30.8383 15.2533 29.4543C13.9911 26.9702 12.8692 24.3796 11.607 21.8601C11.1512 20.9019 10.7655 20.0502 11.6771 19.1276C14.0177 16.7897 16.3583 14.4244 18.7464 12.0318C19.3427 11.4344 20.2503 11.2772 21.0146 11.6354C23.7031 12.8951 26.2711 14.0775 28.7868 15.3659C30.2243 16.1111 31.4865 16.2531 32.9941 15.5079C35.0277 14.5142 37.1664 13.627 39.3051 12.8463C41.1282 12.1721 42.2502 11.0365 42.8112 9.12019C43.5474 6.63609 44.5291 4.18748 45.3706 1.73887C45.7212 0.709741 46.2822 0 47.4743 0C50.6722 0 53.897 0 57.2435 0C58.0915 0 58.8465 0.535172 59.1386 1.33129C60.0601 3.84255 61.0337 6.29601 61.7791 8.8008C62.4102 10.9655 63.5672 12.2076 65.6708 12.8463C67.4589 13.4141 69.247 14.1239 70.8949 15.011C72.9635 16.1821 74.7516 15.9337 76.7501 14.7981C78.9641 13.5565 81.2804 12.5474 83.7423 11.3961C84.5121 11.0361 85.4269 11.1903 86.0295 11.7896C88.3922 14.1398 90.7415 16.4591 92.9832 18.9146C93.439 19.4115 93.4741 20.6535 93.1936 21.3278C92.3171 23.5634 91.2653 25.7282 90.2134 27.8929C89.711 28.949 89.1341 29.9835 89.0284 31.0797C88.8892 32.524 88.4186 34.3528 87.0179 34.7317C83.2095 35.7619 79.5823 36.7501 75.9088 37.7504C75.1068 37.9687 74.2569 37.664 73.7442 37.0098C68.3062 30.0708 61.2109 26.1912 52.2776 26.225C44.7746 26.225 38.3584 29.1704 33.2045 34.7064C22.8265 45.8493 23.8783 63.4155 35.4484 73.4228C45.7884 82.3688 63.8343 82.8092 74.6824 67.6106C75.213 66.8674 76.163 66.5295 77.0282 66.8216C78.8864 67.4489 80.7918 68.0937 82.6753 68.7385C84.2702 69.2686 85.865 69.815 87.5695 70.3999C88.8249 70.8308 89.2472 72.3771 89.1302 73.6992C88.9517 75.7141 90.2037 77.5039 91.09 79.3492C91.8638 80.9717 92.6377 82.6163 93.3944 84.2482C93.7572 85.0304 93.5744 85.9566 92.9445 86.5455C90.4721 88.857 88.0505 91.1318 85.4205 93.5798C84.8217 94.1371 83.9438 94.2728 83.202 93.9279C81.2308 93.0115 78.8791 91.9359 76.5748 90.7405C74.8568 89.8534 73.3141 89.6759 71.526 90.5986C68.7912 92.0181 65.3202 92.5859 63.3568 94.6441C61.4635 96.6314 61.0779 100.074 60.0611 102.913C59.0093 105.965 59.0093 105.965 55.9239 105.965C52.7841 105.965 49.6096 105.965 46.3312 105.965C46.3189 105.965 46.3149 105.981 46.3259 105.987Z" fill="black"/>
</svg>
